<svg xmlns="http://www.w3.org/2000/svg" viewBox="0 0 200 140" role="img" aria-label="Walnut 2 inch profile moulding">
  <defs>
    <linearGradient id="walnut" x1="0" x2="1" y1="0" y2="1">
      <stop offset="0%" stop-color="#5a3a22"/>
      <stop offset="45%" stop-color="#3e2516"/>
      <stop offset="100%" stop-color="#22150c"/>
    </linearGradient>
    <pattern id="walnutGrain" width="200" height="140" patternUnits="userSpaceOnUse">
      <rect width="200" height="140" fill="url(#walnut)"/>
      <path d="M0 18 Q 50 22 100 18 T 200 22" stroke="#2a1810" stroke-width="0.8" fill="none" opacity="0.5"/>
      <path d="M0 38 Q 60 44 120 38 T 200 42" stroke="#4a2e1a" stroke-width="0.6" fill="none" opacity="0.5"/>
      <path d="M0 60 Q 50 56 100 62 T 200 58" stroke="#2a1810" stroke-width="0.7" fill="none" opacity="0.4"/>
      <path d="M0 82 Q 70 86 140 82 T 200 84" stroke="#4a2e1a" stroke-width="0.6" fill="none" opacity="0.5"/>
      <path d="M0 104 Q 60 100 120 106 T 200 102" stroke="#2a1810" stroke-width="0.7" fill="none" opacity="0.45"/>
      <path d="M0 124 Q 50 128 100 124 T 200 126" stroke="#4a2e1a" stroke-width="0.6" fill="none" opacity="0.4"/>
    </pattern>
  </defs>
  <rect width="200" height="140" fill="url(#walnutGrain)"/>
  <rect x="2" y="2" width="196" height="136" fill="none" stroke="#0e0805" stroke-width="2" opacity="0.4"/>
  <rect x="14" y="14" width="172" height="112" fill="none" stroke="#0e0805" stroke-width="1" opacity="0.35"/>
</svg>
